<svg width="200" height="200" viewBox="0 0 200 200" fill="none" xmlns="http://www.w3.org/2000/svg">
<circle cx="100" cy="100" r="100" fill="#C4CED4"/>
<rect x="39" y="89" width="122" height="23" fill="#46BDFF"/>
<path d="M48.2902 109.48C46.9622 109.48 45.8022 109.296 44.8102 108.928C43.8342 108.56 43.0182 108.056 42.3622 107.416C41.7062 106.776 41.2182 106.024 40.8982 105.16C40.5782 104.28 40.4182 103.336 40.4182 102.328V92.008H46.1302V101.704C46.1302 102.52 46.3222 103.16 46.7062 103.624C47.1062 104.072 47.6662 104.296 48.3862 104.296C49.1062 104.296 49.6582 104.072 50.0422 103.624C50.4422 103.16 50.6422 102.52 50.6422 101.704V92.008H56.3302V102.328C56.3302 103.336 56.1542 104.28 55.8022 105.16C55.4662 106.024 54.9622 106.776 54.2902 107.416C53.6182 108.056 52.7782 108.56 51.7702 108.928C50.7782 109.296 49.6182 109.48 48.2902 109.48ZM59.2676 92.008H64.9556L69.8036 100.624H69.8996L69.6596 92.008H75.0836V109H69.2516L64.5476 100.888H64.4516L64.6916 109H59.2676V92.008ZM86.724 109H81.012V96.832H76.836V92.008H90.9V96.832H86.724V109ZM92.6426 92.008H98.4026V109H92.6426V92.008ZM110.044 109H104.332V96.832H100.156V92.008H114.22V96.832H110.044V109ZM115.963 92.008H121.723V104.104H127.363V109H115.963V92.008ZM129.135 92.008H140.823V96.76H134.511V98.224H140.439V102.664H134.511V104.248H141.231V109H129.135V92.008ZM143.596 109V92.008H149.932C151.276 92.008 152.556 92.144 153.772 92.416C155.004 92.672 156.084 93.128 157.012 93.784C157.956 94.424 158.708 95.28 159.268 96.352C159.828 97.424 160.108 98.776 160.108 100.408C160.108 101.896 159.836 103.184 159.292 104.272C158.764 105.36 158.052 106.256 157.156 106.96C156.26 107.648 155.228 108.16 154.06 108.496C152.892 108.832 151.676 109 150.412 109H143.596ZM149.092 96.856V104.104H150.148C151.492 104.104 152.524 103.816 153.244 103.24C153.964 102.648 154.324 101.688 154.324 100.36C154.324 99.256 153.964 98.4 153.244 97.792C152.524 97.168 151.564 96.856 150.364 96.856H149.092Z" fill="white"/>
</svg>
